<svg width="480" height="270" viewBox="0 0 480 270" xmlns="http://www.w3.org/2000/svg">
<defs>
<radialGradient id="be_glow" cx="0.5" cy="0.42" r="0.65">
<stop offset="0" stop-color="#ff6a2c" stop-opacity="0.10"/>
<stop offset="1" stop-color="#ff6a2c" stop-opacity="0"/>
</radialGradient>
</defs>

<rect width="480" height="270" fill="#0c0e10"/>
<rect width="480" height="270" fill="url(#be_glow)"/>

<g stroke="rgba(233,238,242,0.06)" stroke-width="1">
<line x1="0" y1="90" x2="480" y2="90"/>
<line x1="0" y1="180" x2="480" y2="180"/>
<line x1="160" y1="0" x2="160" y2="270"/>
<line x1="320" y1="0" x2="320" y2="270"/>
</g>

<g transform="translate(240,128)">
<circle r="76" fill="none" stroke="#ff6a2c" stroke-width="2" opacity="0.25"/>
<circle r="56" fill="none" stroke="#ff6a2c" stroke-width="2.5" opacity="0.45"/>
<circle r="36" fill="none" stroke="#ff6a2c" stroke-width="3" opacity="0.7"/>
<circle r="16" fill="#ff6a2c" opacity="0.18"/>
<circle r="6" fill="#ff6a2c"/>
<g stroke="#ff6a2c" stroke-width="2" stroke-linecap="round">
<line x1="0" y1="-86" x2="0" y2="-64"/>
<line x1="0" y1="64" x2="0" y2="86"/>
<line x1="-86" y1="0" x2="-64" y2="0"/>
<line x1="64" y1="0" x2="86" y2="0"/>
</g>
<circle cx="34" cy="-30" r="4" fill="#36d6c3"/>
</g>

<g stroke="#ff6a2c" stroke-width="2" fill="none" opacity="0.55">
<path d="M16 36 L16 16 L36 16"/>
<path d="M464 36 L464 16 L444 16"/>
<path d="M16 234 L16 254 L36 254"/>
<path d="M464 234 L464 254 L444 254"/>
</g>

<text x="22" y="34" font-family="'JetBrains Mono', ui-monospace, monospace" font-size="12" letter-spacing="2" fill="#59636d">C[IT]</text>
<text x="22" y="250" font-family="'Chakra Petch', 'Archivo', system-ui, sans-serif" font-size="26" font-weight="700" letter-spacing="1" fill="#e9eef2">BULL<tspan fill="#ff6a2c">SEYE</tspan></text>
</svg>
