<svg width="480" height="270" viewBox="0 0 480 270" xmlns="http://www.w3.org/2000/svg">
<defs>
<radialGradient id="ls_glow" cx="0.5" cy="0.4" r="0.7">
<stop offset="0" stop-color="#00ff9d" stop-opacity="0.10"/>
<stop offset="1" stop-color="#00ff9d" stop-opacity="0"/>
</radialGradient>
<linearGradient id="ls_body" x1="0" y1="0" x2="1" y2="0">
<stop offset="0" stop-color="#00995c"/>
<stop offset="1" stop-color="#00ff9d"/>
</linearGradient>
</defs>

<rect width="480" height="270" fill="#08080a"/>
<rect width="480" height="270" fill="url(#ls_glow)"/>

<g stroke="rgba(0,255,157,0.06)" stroke-width="1">
<line x1="120" y1="0" x2="120" y2="270"/>
<line x1="240" y1="0" x2="240" y2="270"/>
<line x1="360" y1="0" x2="360" y2="270"/>
<line x1="0" y1="90" x2="480" y2="90"/>
<line x1="0" y1="180" x2="480" y2="180"/>
</g>

<g fill="none" stroke-linecap="round">
<path d="M70 200 C140 150 120 90 200 95 C280 100 250 175 330 155 C370 146 380 120 384 104"
      stroke="#00ff9d" stroke-width="34" opacity="0.16"/>
<path d="M70 200 C140 150 120 90 200 95 C280 100 250 175 330 155 C370 146 380 120 384 104"
      stroke="url(#ls_body)" stroke-width="22"/>
<path d="M70 200 C140 150 120 90 200 95 C280 100 250 175 330 155 C370 146 380 120 384 104"
      stroke="rgba(234,255,246,0.45)" stroke-width="6"/>
</g>

<g transform="translate(388,102)">
<circle r="16" fill="#00ff9d"/>
<circle r="16" fill="none" stroke="rgba(234,255,246,0.5)" stroke-width="2"/>
<circle cx="6" cy="-5" r="3" fill="#ffcf3a"/>
<circle cx="6" cy="6" r="3" fill="#ffcf3a"/>
</g>

<g transform="translate(432,86)">
<circle r="20" fill="#ff6a2c" opacity="0.25"/>
<circle r="11" fill="#ffcf3a"/>
<circle cx="-3" cy="-3" r="3.5" fill="#eafff6"/>
</g>

<g stroke="#00ff9d" stroke-width="2" fill="none" opacity="0.55">
<path d="M16 36 L16 16 L36 16"/>
<path d="M464 36 L464 16 L444 16"/>
<path d="M16 234 L16 254 L36 254"/>
<path d="M464 234 L464 254 L444 254"/>
</g>

<text x="22" y="34" font-family="'JetBrains Mono', ui-monospace, monospace" font-size="12" letter-spacing="2" fill="#4e5a55">C[IT]</text>
<text x="22" y="250" font-family="'Saira Stencil One', 'Archivo', system-ui, sans-serif" font-size="26" letter-spacing="1" fill="#e6ece9">LIGHT<tspan fill="#00ff9d"> SNAKE</tspan></text>
</svg>
