<svg width="480" height="270" viewBox="0 0 480 270" xmlns="http://www.w3.org/2000/svg">
<defs>
<radialGradient id="ts_glow" cx="0.5" cy="0.32" r="0.7">
<stop offset="0" stop-color="#1fe3a6" stop-opacity="0.10"/>
<stop offset="1" stop-color="#1fe3a6" stop-opacity="0"/>
</radialGradient>
<radialGradient id="ts_shell" cx="0.38" cy="0.34" r="0.75">
<stop offset="0" stop-color="#e6fff6"/>
<stop offset="0.45" stop-color="#1fe3a6"/>
<stop offset="1" stop-color="#0c8f68"/>
</radialGradient>
<polygon id="ts_hex" points="20,0 10,14.9 -10,14.9 -20,0 -10,-14.9 10,-14.9"/>
<polygon id="ts_pent" points="0,-15.48 17.12,-4.78 10.58,12.52 -10.58,12.52 -17.12,-4.78"/>
</defs>

<rect width="480" height="270" fill="#04141d"/>
<rect width="480" height="270" fill="url(#ts_glow)"/>

<g fill="#1fe3a6">
<circle cx="90" cy="60" r="2.4" opacity="0.12"/>
<circle cx="150" cy="200" r="3" opacity="0.1"/>
<circle cx="300" cy="70" r="2.2" opacity="0.1"/>
<circle cx="250" cy="220" r="2.8" opacity="0.09"/>
<circle cx="410" cy="180" r="2" opacity="0.12"/>
</g>

<g>
<rect x="430" y="22" width="34" height="86" rx="7" fill="#063140"/>
<rect x="430" y="168" width="34" height="80" rx="7" fill="#063140"/>
<rect x="427" y="98" width="40" height="10" rx="5" fill="#ff7a52"/>
<rect x="427" y="168" width="40" height="10" rx="5" fill="#ff7a52"/>
<line x1="430" y1="108" x2="464" y2="108" stroke="#1fe3a6" stroke-width="2" opacity="0.5"/>
<line x1="430" y1="168" x2="464" y2="168" stroke="#1fe3a6" stroke-width="2" opacity="0.5"/>
</g>

<g transform="translate(210,140) scale(0.82)">
<path d="M0,-9 Q22,-18 40,-4 Q43,0 40,4 Q22,18 0,9 Z" fill="#0c8f68" transform="translate(-46,-18) rotate(250)"/>
<path d="M0,-9 Q22,-18 40,-4 Q43,0 40,4 Q22,18 0,9 Z" fill="#0c8f68" transform="translate(-46,18) rotate(110)"/>
<path d="M0,-15 Q43,-30 78,-6.6 Q83,0 78,6.6 Q43,30 0,15 Z" fill="#1fe3a6" transform="translate(24,-22) rotate(290)"/>
<path d="M0,-15 Q43,-30 78,-6.6 Q83,0 78,6.6 Q43,30 0,15 Z" fill="#1fe3a6" transform="translate(24,22) rotate(70)"/>
<polygon points="-70,-7 -70,7 -86,0" fill="#0c8f68"/>
<ellipse cx="0" cy="0" rx="70" ry="52" fill="url(#ts_shell)"/>
<g fill="#0c8f68" fill-opacity="0.22" stroke="#06241b" stroke-width="1.6" stroke-linejoin="round">
<use href="#ts_hex" transform="translate(30,0)"/>
<use href="#ts_hex" transform="translate(0,0) scale(1.1)"/>
<use href="#ts_hex" transform="translate(-30,0)"/>
<use href="#ts_pent" transform="translate(10,-30) scale(0.95)"/>
<use href="#ts_pent" transform="translate(-24,-28) scale(0.85)"/>
<use href="#ts_pent" transform="translate(10,30) scale(0.95)"/>
<use href="#ts_pent" transform="translate(-24,28) scale(0.85)"/>
<use href="#ts_pent" transform="translate(54,0) scale(0.7)"/>
<use href="#ts_pent" transform="translate(-56,0) scale(0.7)"/>
</g>
<ellipse cx="70" cy="0" rx="20" ry="15" fill="#1fe3a6"/>
<circle cx="78" cy="-5" r="5" fill="#e6fff6"/>
<circle cx="80" cy="-5" r="2.4" fill="#04141d"/>
</g>

<g stroke="#1fe3a6" stroke-width="2" fill="none" opacity="0.6">
<path d="M16 36 L16 16 L36 16"/>
<path d="M464 36 L464 16 L444 16"/>
<path d="M16 234 L16 254 L36 254"/>
<path d="M464 234 L464 254 L444 254"/>
</g>

<text x="22" y="34" font-family="'JetBrains Mono', ui-monospace, monospace" font-size="12" letter-spacing="2" fill="#4d6b69">C[IT]</text>
<text x="22" y="250" font-family="'Archivo', system-ui, sans-serif" font-size="26" font-weight="800" letter-spacing="1" fill="#e6f3f0">TURTLE<tspan fill="#1fe3a6"> SURF</tspan></text>
</svg>
